<?xml version="1.0" standalone="no"?>
<!DOCTYPE svg PUBLIC "-//W3C//DTD SVG 20010904//EN"
 "http://www.w3.org/TR/2001/REC-SVG-20010904/DTD/svg10.dtd">
<svg version="1.0" xmlns="http://www.w3.org/2000/svg"
 width="510.000000pt" height="510.000000pt" viewBox="0 0 510.000000 510.000000"
 preserveAspectRatio="xMidYMid meet">
<metadata>
Created by potrace 1.14, written by Peter Selinger 2001-2017
</metadata>
<g transform="translate(0.000000,510.000000) scale(0.100000,-0.100000)"
fill="#000000" stroke="none">
<path d="M2173 4863 c-79 -38 -215 -143 -320 -246 -40 -39 -76 -73 -81 -76 -4
-3 -36 -41 -70 -84 l-62 -79 2 39 c7 130 -54 178 -160 124 -107 -55 -328 -248
-471 -411 -63 -72 -141 -188 -194 -290 -91 -172 -110 -254 -78 -326 26 -56 75
-101 233 -207 86 -57 141 -101 147 -117 6 -14 10 -111 10 -225 -1 -277 22
-385 82 -385 16 0 69 66 69 87 0 13 92 194 96 190 3 -2 7 -22 9 -43 8 -65 26
-143 45 -198 16 -47 16 -54 3 -72 -45 -57 -141 -287 -158 -375 -3 -13 -10 -49
-16 -79 -28 -137 -11 -354 36 -457 73 -161 200 -230 525 -288 152 -27 256 -50
299 -67 14 -5 35 -12 45 -14 39 -7 171 -76 212 -109 23 -19 58 -59 78 -89 23
-35 47 -58 66 -65 27 -9 30 -14 24 -38 -3 -15 -14 -39 -23 -51 -9 -13 -24 -38
-33 -55 -17 -29 -17 -33 0 -61 34 -58 100 -60 156 -4 25 25 41 33 83 36 59 5
76 19 91 74 9 33 7 42 -15 75 -14 21 -33 58 -41 83 -8 25 -19 51 -24 57 -7 8
-7 23 -1 40 23 65 -8 161 -97 311 l-32 53 63 -35 c145 -79 303 -65 441 37 31
23 92 72 137 109 l80 68 -18 -53 c-10 -29 -36 -111 -56 -183 -41 -139 -85
-244 -116 -275 -21 -21 -34 -62 -25 -84 3 -9 19 -18 36 -22 l31 -6 -36 -37
c-20 -21 -55 -46 -76 -56 -48 -21 -59 -53 -35 -99 23 -42 55 -57 97 -45 37 11
70 7 123 -15 41 -18 82 -11 96 15 5 10 9 44 8 77 -2 67 10 95 52 120 17 9 33
25 36 35 3 10 15 18 28 18 26 0 92 40 185 113 135 106 223 158 494 290 234
114 322 169 399 249 182 189 189 481 19 741 -56 85 -152 177 -221 212 -40 20
-48 29 -45 47 21 127 32 255 34 382 1 60 3 67 16 56 52 -43 186 -271 215 -365
16 -51 47 -112 60 -120 37 -23 151 153 176 270 21 99 25 162 22 324 l-3 186
38 63 c21 34 41 62 45 62 14 0 94 130 106 172 31 103 -3 208 -130 404 -31 48
-60 92 -65 98 -5 6 -37 49 -71 96 -133 179 -239 283 -313 307 -39 13 -86 -10
-149 -72 -50 -51 -80 -127 -70 -180 6 -33 13 -38 -81 50 -169 158 -492 374
-612 410 -84 26 -134 18 -398 -62 -27 -8 -60 -16 -72 -18 -12 -2 -34 -6 -50
-9 -167 -34 -342 -18 -482 45 -157 71 -237 76 -348 22z m1182 -762 c3 -5 1
-12 -5 -16 -5 -3 -10 1 -10 9 0 18 6 21 15 7z"/>
<path d="M849 2980 c-73 -22 -154 -106 -217 -226 -41 -80 -87 -255 -91 -350
-1 -7 -31 -31 -68 -55 -82 -52 -239 -208 -272 -270 -60 -113 -80 -160 -100
-240 -39 -155 -33 -254 20 -365 33 -70 84 -121 161 -160 45 -23 66 -27 138
-28 47 -1 94 2 106 7 14 5 28 1 44 -13 l24 -21 -23 -52 c-99 -224 -104 -345
-19 -408 81 -61 234 -108 375 -116 115 -7 178 5 236 43 22 14 40 24 41 22 1
-2 7 -14 14 -28 21 -40 84 -106 120 -123 26 -13 58 -15 150 -12 207 6 315 47
372 142 45 74 62 128 62 198 0 98 -15 149 -59 189 -28 26 -44 33 -288 121 -71
26 -180 69 -242 96 -62 28 -125 51 -140 52 -25 2 -30 9 -48 62 l-21 60 23 78
c40 139 52 232 48 377 -3 143 -3 142 -31 235 -13 43 -18 101 -20 205 -3 161
-5 182 -35 290 -34 126 -60 187 -96 230 -55 64 -99 80 -164 60z"/>
<path d="M2023 1098 c24 -72 30 -117 30 -213 0 -90 -5 -128 -27 -210 -28 -98
-41 -154 -55 -225 -4 -19 -3 -61 1 -93 8 -57 44 -157 57 -157 4 0 15 17 24 38
9 20 49 71 87 112 45 47 84 102 108 150 35 69 37 80 37 165 0 79 -3 97 -29
146 -15 31 -63 94 -105 139 -42 46 -89 101 -105 124 -15 23 -26 33 -23 24z"/>
</g>
</svg>
